<svg width="291" height="66" viewBox="0 0 291 66" fill="none" xmlns="http://www.w3.org/2000/svg">
<g clip-path="url(#clip0_43_2095)">
<path d="M108.763 62.347C108.306 62.5121 107.833 62.6311 107.351 62.7022C106.09 62.7022 104.838 62.6489 103.586 62.7022C102.215 62.855 100.836 62.9203 99.4569 62.8975C97.5566 62.6933 95.6918 63.1107 93.8003 62.9686C91.9088 62.8265 89.8398 62.8265 87.8595 62.8265C85.0179 62.8265 82.1763 62.9419 79.3347 62.9419C77.683 62.9419 76.0313 62.8176 74.3796 62.7199C74.1153 62.6588 73.8632 62.5537 73.6337 62.4091L72.6124 61.9651C72.5059 61.2192 72.3549 60.2779 72.275 59.3011C72.275 59.0791 72.4881 58.8216 72.6213 58.5818C72.6213 58.5818 72.7723 58.5818 72.7634 58.5197C72.7279 57.3949 72.6746 56.2405 72.6036 55.0564C72.6036 55.0564 72.4082 55.0564 72.4793 55.0564V48.4142C73.1364 48.0678 72.1063 47.2775 72.3461 46.7269C72.5463 46.3987 72.6347 46.0144 72.5978 45.6317C72.561 45.249 72.401 44.8886 72.1418 44.6046C72.7368 43.9741 72.7368 40.1646 72.2573 39.4009L72.8078 37.6249C71.8132 37.2785 72.8611 36.6481 72.8078 36.0442H72.0264L72.7368 34.5701C72.5252 34.3323 72.3814 34.042 72.3205 33.7295C72.2595 33.4171 72.2837 33.094 72.3904 32.7941C72.5331 31.8891 72.551 30.9689 72.4437 30.059H72.5148C72.5947 29.171 72.6924 28.434 72.7279 27.6614C72.7634 26.8889 72.7279 26.134 72.7279 25.2816C71.9376 24.9352 71.9109 24.6955 72.6302 23.8341C72.4766 23.3977 72.3753 22.9446 72.3283 22.4843C72.3283 21.3299 72.5592 20.1755 72.5414 19.0211C72.5237 17.8667 72.275 16.7656 72.204 15.6378C72.2208 15.0703 72.2682 14.5041 72.3461 13.9417C72.3993 12.7873 72.426 11.6329 72.4615 10.4785C72.4615 9.59047 72.4615 8.70247 72.5325 7.81446C72.6036 6.92645 72.7545 5.93188 72.7989 4.98172C72.7989 4.71531 72.5592 4.43115 72.4437 4.20027C72.9943 3.4721 72.8522 2.37097 73.9711 1.94473L74.6105 2.35321L74.8058 1.75825C75.5873 1.84705 76.4575 2.19337 77.0969 1.95361C77.9849 1.61617 78.642 2.34433 79.5123 1.95361C80.3685 1.66037 81.2853 1.59008 82.1763 1.74937C82.8035 1.8954 83.4031 2.14126 83.9523 2.47753C84.8403 2.90378 84.9469 3.66746 84.8403 4.59099C84.7693 5.79868 84.8936 7.01525 84.9025 8.23182C84.9025 11.251 84.9025 14.2703 84.9025 17.254C85.1922 17.5084 85.5185 17.718 85.8704 17.8756C86.4091 18.0877 86.9946 18.1521 87.5665 18.0621C88.3302 17.8223 88.9251 17.6269 89.3425 18.6304L90.2305 17.8845V18.1686C90.5791 18.2435 90.9321 18.2969 91.2872 18.3285C91.8554 18.3866 92.4288 18.3687 92.9922 18.2752C93.5872 18.1331 94.2177 18.7813 94.7682 18.1331C94.8482 18.0443 95.2655 18.2663 95.5852 18.3551L97.5388 16.7745L97.1037 14.1637H97.3879L97.5743 12.0059L97.1303 11.8194L97.7786 11.0823L97.6543 10.9314L97.006 11.3576C97.2333 10.8807 97.3975 10.3762 97.4944 9.85688C97.472 9.16124 97.4097 8.46746 97.3079 7.77894C97.228 6.94421 96.8817 6.00292 98.1959 5.50564L97.1126 5.1238L96.6686 4.67979L97.5033 4.01379L97.8407 4.28019L96.9527 3.94275C97.7075 3.80067 96.7663 2.26441 98.2847 2.93042L98.0894 2.04241L99.4658 1.74937L99.6523 2.23777C100.54 2.08681 101.428 1.51849 102.165 2.42425C102.459 2.07769 102.87 1.85036 103.319 1.78496C103.769 1.71955 104.227 1.82057 104.607 2.06905H108.408C108.926 2.45155 109.309 2.98926 109.5 3.60406C109.692 4.21887 109.683 4.87876 109.474 5.48788C109.446 5.96666 109.478 6.44705 109.571 6.91757C109.571 9.58159 109.571 12.2456 109.571 14.9096C109.571 15.5756 109.305 16.2416 109.314 16.9077C109.323 17.5737 109.562 18.213 109.58 18.8701C109.625 20.3798 109.58 21.8894 109.58 23.399C109.58 25.6101 109.642 27.839 109.651 30.0413C109.651 31.986 109.589 33.9308 109.651 35.8666C109.713 37.8025 109.829 39.765 109.82 41.7008C109.82 45.8212 109.678 49.9415 109.625 54.0619C109.625 56.2997 109.625 58.5019 109.625 60.7841C109.61 61.3435 109.524 61.8987 109.367 62.4358C109.367 62.569 108.967 62.6223 108.763 62.7022V62.347ZM97.6809 38.6372C97.7431 38.6372 97.4589 38.6372 97.45 38.5484C97.45 37.8824 97.45 37.2164 97.3967 36.5504C97.3967 36.3195 97.3967 36.0975 97.3967 35.8666C97.3967 34.357 97.228 32.8385 97.2813 31.3289C97.3346 29.8193 96.8106 29.2865 95.3987 29.251C93.6227 29.251 91.9 29.1178 90.1595 29.1266C88.419 29.1355 86.7229 29.2687 84.9114 29.3398C84.9114 31.4532 84.9114 33.5489 84.9114 35.6357C84.9114 37.9001 84.9114 40.1646 84.9114 42.429C85.0268 44.683 85.0268 46.9415 84.9114 49.1956C84.7949 49.683 84.8539 50.1959 85.078 50.6441C85.3021 51.0923 85.677 51.4472 86.1368 51.6465C86.5719 51.4955 87.0248 51.5932 87.3889 51.4689C88.0815 51.2469 88.6587 51.6376 89.2626 51.6731C90.6451 51.6789 92.0268 51.6048 93.4007 51.4511C93.7204 51.4511 94.2887 51.3446 94.2887 51.4511C94.6439 52.0727 95.008 51.5843 95.3188 51.5133C95.8794 51.3373 96.4307 51.1328 96.9705 50.9006L97.5921 49.0713C97.4116 48.1442 97.287 47.2072 97.2191 46.2652C97.2191 44.5424 97.2191 42.8286 97.3168 41.1059C97.3701 40.3333 97.5388 39.5252 97.6809 38.6372Z" fill="#434343"/>
<path d="M189.874 32.581L190.193 32.3323L189.98 32.2791C189.992 31.8696 190.07 31.4646 190.211 31.0803C190.442 30.6451 190.105 30.2899 190.114 29.8992C190.114 28.8425 190.478 27.6614 189.714 26.6669C189.652 26.5869 189.776 26.3649 189.803 26.214L189.936 25.1572L189.652 25.0684L190.344 24.2692C189.456 23.7542 189.403 23.1237 190.087 22.5554C190.203 22.3536 190.234 22.1144 190.176 21.8894C190.034 21.1967 189.82 20.5219 189.696 19.8292C189.696 19.6782 189.9 19.4829 189.883 19.5184V16.3837C190.22 16.1884 190.62 15.8865 189.998 15.1316C189.767 14.8386 189.998 14.1282 190.096 13.5332L190.336 13.4533L190.167 11.8638H190.353L189.687 10.7271L189.909 10.5584L190.407 10.8515C190.407 10.665 190.407 10.4874 190.407 10.3275C190.229 9.43952 189.661 8.40055 189.963 7.75231C190.442 6.71334 190.016 5.67437 190.407 4.70644C190.442 4.47963 190.398 4.2477 190.282 4.04932C190.187 3.88919 190.128 3.71074 190.107 3.52579C190.086 3.34084 190.105 3.1536 190.162 2.97647C190.219 2.79933 190.313 2.63634 190.438 2.49828C190.563 2.36022 190.716 2.25024 190.886 2.17562C192.058 1.3853 193.346 1.76714 194.554 1.52738C196.143 1.19881 197.759 1.98914 199.349 1.20769C200.012 1.05135 200.709 1.12007 201.329 1.40306C202.217 1.6961 203.247 0.825851 204.046 1.75826C204.106 1.78729 204.171 1.80238 204.237 1.80238C204.303 1.80238 204.369 1.78729 204.428 1.75826C204.686 0.976812 205.316 1.28761 205.796 1.31425C207.074 1.39418 208.353 1.50074 209.348 1.57178L212.456 1.25209L212.136 1.85594L215.688 1.06561V1.70498C216.187 1.70469 216.685 1.67206 217.18 1.6073C219.299 1.32414 221.45 1.39315 223.547 1.81154C224.21 1.96118 224.901 1.93979 225.554 1.74938C226.353 1.42082 226.975 1.88258 227.872 1.89146C227.916 3.66747 227.978 5.44349 228.005 7.2195C228.031 8.99552 228.005 10.8248 228.005 12.6363C226.433 12.8406 224.915 13.1425 223.378 13.2136C222.162 13.2757 220.936 13.036 219.711 12.9916C219.347 12.9916 218.965 13.2668 218.592 13.2668C216.647 13.2668 214.702 13.1159 212.758 13.0981C210.982 13.0981 209.259 13.1958 207.51 13.178C206.222 13.178 204.934 13.0093 203.354 12.9028C203.354 16.2772 203.354 19.4207 203.274 22.5731C203.167 23.9053 203.132 25.2421 203.167 26.5781C203.371 27.3729 203.697 28.1309 204.135 28.8247C204.908 28.434 205.503 29.8637 206.417 28.9934C206.675 28.7448 207.465 29.0911 208.016 29.1C209.321 29.1 210.635 29.1 211.941 29.1C212.207 29.1 212.465 29.3486 212.909 29.5706L212.562 28.9224L212.74 28.7537L213.628 29.7216L213.974 29.0023L216.043 29.3131L216.088 28.9224L217.917 29.473L217.784 28.8869L219.658 29.4552C219.72 29.4552 219.959 29.1622 220.119 29.2066C220.776 29.3842 221.664 28.4429 222.064 29.4552C224.044 28.5672 226.149 29.8015 228.165 29.1799C228.165 29.3664 228.023 29.7305 228.067 29.7571C229.479 30.3965 228.733 31.6841 228.813 32.6254C228.937 34.6481 228.937 36.6766 228.813 38.6994C228.839 38.9787 228.803 39.2604 228.708 39.5243C228.613 39.7882 228.46 40.0279 228.262 40.2263C228.064 40.4247 227.824 40.5769 227.56 40.6722C227.296 40.7674 227.014 40.8033 226.735 40.7773C224.959 40.7773 223.183 40.946 221.407 40.9638C219.631 40.9815 217.766 40.9638 215.839 40.9016C215.768 42.5444 215.688 44.0718 215.759 45.6169C215.866 47.8281 215.377 50.057 215.928 52.3214L217.1 53.458C217.686 53.2982 218.645 52.57 219.631 53.458C219.659 53.4708 219.689 53.4774 219.72 53.4774C219.75 53.4774 219.781 53.4708 219.809 53.458C220.697 52.57 221.585 53.0229 222.366 53.3604L222.872 52.7832L223.192 53.5912C223.725 53.5202 224.328 53.4314 224.968 53.3781C225.757 53.2675 226.551 53.2052 227.348 53.1916C227.895 53.2991 228.428 53.469 228.937 53.6978L229.488 53.3959C229.541 53.4669 229.63 53.5291 229.657 53.6179C230.053 54.3808 230.326 55.2022 230.465 56.051C230.509 58.6262 230.367 61.2104 230.305 63.7856C230.305 64.6736 229.417 64.5404 229.008 64.6025C227.752 64.7732 226.485 64.8592 225.216 64.8601C223.583 64.9311 221.949 64.7713 220.306 64.8601C218.032 64.9489 215.75 64.718 213.468 64.7269C210.991 64.7269 208.522 64.8689 206.053 64.8867C204.686 64.8867 203.309 64.6913 201.942 64.6913C200.166 64.6913 198.39 64.8512 196.614 64.8867C194.838 64.9222 193.008 64.9577 191.215 64.8867C190.21 64.7637 189.216 64.5679 188.24 64.3006L188.835 63.7323C187.769 63.2616 188.409 62.3115 188.293 61.5833C188.294 60.9268 188.25 60.2711 188.16 59.6208C187.965 59.0081 188.915 58.4575 188.16 57.8448C188.16 57.8448 188.657 57.0811 188.488 56.5305C188.413 56.1824 188.362 55.8292 188.338 55.4738C188.524 55.0565 188.799 54.3638 189.163 53.6978C189.244 53.5773 189.349 53.4748 189.471 53.3968C189.593 53.3189 189.73 53.2671 189.874 53.2449C190.114 53.2449 190.38 53.4403 190.637 53.5557C191.525 53.5557 192.751 53.4847 193.941 53.3959C194.385 53.3959 194.829 53.0851 195.264 53.0851C196.557 53.048 197.851 53.1044 199.136 53.2538C199.81 53.463 200.531 53.463 201.205 53.2538C202.617 52.6855 203.061 52.1438 202.981 50.6697C202.927 49.8794 203.141 49.0713 203.123 48.2721C203.105 47.4729 203.309 46.8601 202.688 46.1409C202.386 45.7857 202.643 44.7467 202.927 44.1428C203.309 43.317 202.572 42.8375 202.528 42.1537C202.528 41.8251 202.164 41.5232 201.826 40.9904C200.29 40.9904 198.479 40.9904 196.676 40.9904C194.873 40.9904 192.902 40.8483 191.019 40.7773C191.019 40.1557 189.403 40.4665 190.229 39.2322C190.388 38.8944 190.453 38.5204 190.419 38.1489C190.384 37.7773 190.251 37.4217 190.034 37.1187C189.881 36.9248 189.805 36.6813 189.82 36.4349C189.927 35.5469 190.122 34.6589 190.202 33.7709C190.154 33.3599 190.043 32.9586 189.874 32.581Z" fill="#434343"/>
<path d="M257.868 36.6036C258.33 35.8666 258.863 35.9021 259.973 36.799V36.133C260.47 36.4527 261.056 35.6091 261.598 36.4349C261.731 36.6391 262.557 36.4349 263.063 36.355C264.102 36.2395 265.141 36.0797 266.189 36.0087C266.358 36.0087 266.553 36.3283 266.784 36.5415L267.486 35.9554V36.1774H269.448C269.768 36.1774 270.087 36.1774 270.407 36.1774C270.896 36.1774 271.384 36.1774 271.881 36.0975C273.045 36.0087 274.181 36.9855 275.433 36.1596C275.611 36.0353 276.099 36.4615 276.446 36.4615C278.142 36.4615 279.847 36.355 281.543 36.3106C281.949 36.2674 282.36 36.3067 282.75 36.426C283.878 36.9144 284.065 37.8557 284.056 39.019C284.056 41.8429 284.278 44.6667 284.198 47.4817C284.118 50.2967 284.34 53.0762 284.198 55.8734C284.127 57.4718 283.914 59.0525 283.798 60.6509C283.798 61.2547 283.869 61.8674 283.852 62.4713C283.852 63.528 283.736 64.5936 283.665 65.7303C282.218 65.6326 281.001 65.4994 279.811 65.4905C278.621 65.4816 277.351 65.6415 276.126 65.6859C273.258 65.7658 270.389 65.8723 267.521 65.8812C264.653 65.8901 261.714 65.7835 258.81 65.7747C257.398 65.7747 255.977 65.899 254.565 65.899C251.901 65.899 249.237 65.8368 246.573 65.7924C244.273 65.7924 241.982 65.6859 239.691 65.7036C238.723 65.7036 238.217 65.6237 238.013 64.4071C237.732 63.2798 237.784 62.0953 238.164 60.9972C237.276 60.2069 237.16 59.6208 237.924 59.2212L237.595 58.7949C237.746 57.4185 237.871 56.2641 237.986 55.163C237.782 55.0564 237.284 54.8699 237.302 54.7811C237.412 54.3447 237.554 53.9172 237.728 53.5024C237.728 52.8275 237.773 52.2858 237.728 51.7264C237.684 51.1669 237.453 50.7407 237.453 50.2523C237.406 49.5625 237.487 48.8699 237.693 48.2099C237.816 47.8767 237.865 47.5208 237.838 47.1667C237.81 46.8126 237.706 46.4687 237.533 46.1586C237.435 45.9277 237.604 45.5814 237.578 45.3416C237.578 44.3471 237.578 43.3525 237.578 42.3668C237.578 41.3811 237.764 40.28 237.888 38.9213C237.356 38.2908 237.64 37.2963 238.883 36.799C239.898 36.4832 240.955 36.3245 242.018 36.3283C242.749 36.3065 243.478 36.2443 244.202 36.1419C244.389 36.1419 244.664 36.0975 244.77 36.204C245.658 37.092 246.662 36.4971 247.594 36.3106C249.412 35.9777 251.278 36.011 253.082 36.4083C253.618 36.5548 254.187 36.5173 254.698 36.3017C255.711 35.6535 256.705 36.5859 257.673 36.1951C257.746 36.3274 257.811 36.4638 257.868 36.6036ZM271.473 47.3219L270.061 46.7269C269.363 46.5625 268.636 46.5625 267.938 46.7269C266.162 46.8246 264.386 46.7269 262.61 46.7269C261.989 46.7269 261.376 46.6647 260.754 46.6647C258.57 46.6647 256.377 46.6647 254.192 46.6647H250.338C250.338 49.0624 250.338 51.238 250.338 53.4047C250.338 54.2128 250.338 54.8699 251.395 54.9232C251.857 54.9232 252.283 55.3406 252.762 55.4294C253.799 55.6372 254.85 55.7619 255.906 55.8023C257.682 55.8023 259.387 54.9143 261.234 55.6603C261.998 55.9533 263.01 55.5626 263.898 55.5182C264.711 55.6086 265.533 55.5847 266.34 55.4471C267.37 55.1275 268.631 55.5981 269.484 55.6869L270.984 55.3139L270.878 54.8611H271.659C271.598 54.6272 271.551 54.39 271.517 54.1507C271.473 53.7066 271.153 53.1206 271.997 53.0495C271.89 52.8719 271.695 52.6943 271.695 52.5256C271.695 51.7175 271.792 50.9094 271.81 50.1013C271.828 49.2932 271.997 48.5118 270.922 48.1477L271.473 47.3219Z" fill="#434343"/>
<path d="M149.931 2.21998C150.366 1.99797 150.633 1.76709 150.739 1.82925C151.947 2.45086 153.403 1.36749 154.54 2.3887C154.54 2.3887 154.7 2.3887 154.744 2.3887C155.49 1.72269 156.396 2.32654 157.222 2.06901C157.595 1.95357 158.11 2.42422 158.518 2.2999C159.717 1.90029 160.845 2.8327 162.07 2.2999C162.338 2.19767 162.627 2.16459 162.911 2.2037C163.195 2.24282 163.465 2.35288 163.695 2.52371C163.925 2.69453 164.108 2.92061 164.228 3.18105C164.347 3.44148 164.399 3.72787 164.379 4.01375C164.424 7.05074 164.379 10.0877 164.432 13.1247C164.486 16.1617 164.575 19.1987 164.601 22.2357C164.601 24.8997 164.708 27.617 164.601 30.2988C164.486 32.7585 164.601 35.2094 164.601 37.6603C164.601 39.9248 164.432 42.1892 164.441 44.4536C164.441 47.2863 164.592 50.1191 164.592 52.9518C164.592 54.3371 164.388 55.7135 164.344 57.0988C164.344 58.1911 164.424 59.2922 164.344 60.3933C164.28 61.1913 164.176 61.9856 164.033 62.7732C161.706 62.7732 159.54 62.7732 157.364 62.7732C155.872 62.7732 154.38 62.6755 152.924 62.5512C152.604 62.5512 152.036 62.2049 152.036 61.9651C151.901 60.9171 151.859 59.8592 151.912 58.8038C151.912 58.4752 151.024 57.7382 152 57.827C151.947 56.7081 151.894 55.678 151.84 54.639C151.84 54.1773 151.778 53.7066 151.734 53.2449C151.681 53.008 151.645 52.7676 151.627 52.5256C151.826 51.3527 151.901 50.1621 151.849 48.9736C151.749 48.5831 151.745 48.1744 151.836 47.7819C151.927 47.3893 152.111 47.0244 152.373 46.718L152.08 45.4748H152C151.903 45.2706 151.716 45.0663 151.716 44.8621C151.716 43.5567 151.716 42.2513 151.796 40.9549C151.796 39.9514 151.894 38.948 151.938 37.9534H152.231C152.098 37.8646 151.84 37.7669 151.84 37.6781C151.84 36.648 151.912 35.6268 151.929 34.6056C151.929 34.0195 151.929 33.4423 151.929 32.8296C151.929 32.2169 150.979 31.7018 152 31.1246C152.134 31.0447 151.867 30.2988 151.814 29.8548C151.778 29.6193 151.778 29.3798 151.814 29.1444C151.814 28.9135 152.071 28.6293 151.991 28.4695C151.308 27.0309 152.062 25.6278 151.991 24.207C151.922 23.3743 151.801 22.5469 151.627 21.7295C151.614 21.5581 151.614 21.3859 151.627 21.2145C151.69 20.2199 151.761 19.2253 151.814 18.2307C151.814 18.0265 151.69 17.7867 151.743 17.6091C152.089 16.4015 151.272 15.469 151.086 14.5366C148.262 14.5366 145.473 14.5366 142.694 14.5366C141.538 14.5476 140.382 14.4644 139.24 14.288C138.608 14.0785 138.01 13.7794 137.464 13.4C138.21 12.3521 137.242 11.2155 137.153 10.0344C137.162 8.74664 137.326 7.46459 137.641 6.21601C137.33 5.44344 137.33 5.44344 137.774 5.1948C137.659 4.7064 137.322 4.09367 137.499 3.85391C137.917 3.25894 138.059 2.24662 139.204 2.41534C139.639 2.48638 140.092 2.19334 140.581 2.15782C140.794 2.15782 141.025 2.35318 141.362 2.5219C141.647 2.26564 142.014 2.1202 142.397 2.11205C142.78 2.1039 143.153 2.23359 143.449 2.4775C143.582 2.54854 143.848 2.62846 143.893 2.57518C144.701 1.61613 145.873 2.14893 146.841 1.86477C147.392 1.82465 147.947 1.88789 148.475 2.05125L149.931 2.21998Z" fill="#434343"/>
<path d="M62.4802 53.6977C63.6644 53.6469 64.8506 53.6677 66.0323 53.7599C66.3431 53.7599 66.796 54.5058 66.8048 54.9232C66.8759 56.5305 66.8048 58.1467 66.8048 59.7717C66.8048 60.9528 66.8936 62.1427 66.867 63.3237C66.8758 63.4956 66.8486 63.6674 66.7872 63.8281C66.7257 63.9888 66.6313 64.1348 66.5101 64.2569C66.3888 64.379 66.2434 64.4744 66.0831 64.537C65.9229 64.5995 65.7513 64.6279 65.5794 64.6202C62.9242 64.7179 60.3845 64.8245 57.7205 64.8245C55.0565 64.8245 52.4724 64.6469 49.8528 64.638C47.5262 64.638 45.1996 64.7978 42.8819 64.8245C39.7384 64.8245 36.5948 64.8245 33.4513 64.8245C27.8302 64.8245 22.2091 64.8245 16.5791 64.8245C14.5367 64.8245 12.4943 64.6291 10.4519 64.6291C8.40947 64.6291 6.45586 64.7357 4.45784 64.8422C3.79184 64.8422 3.18799 64.5581 2.45094 64.7801C1.56294 65.0465 -0.0709962 63.6701 -0.0443559 62.7732C-0.0443559 62.418 0.310847 62.0717 0.452928 61.8141C0.399648 61.3524 0.328607 60.9261 0.319727 60.4644C0.319727 59.5764 0.266447 58.6883 0.319727 57.7382C0.373007 56.566 0.319727 55.4294 1.20773 54.3815C1.43224 54.1362 1.70728 53.9424 2.01389 53.8137C2.3205 53.6849 2.65139 53.6241 2.98375 53.6356C3.51241 53.636 4.04046 53.6716 4.5644 53.7421C4.75976 53.7421 4.95512 53.5113 4.964 53.5024C7.89443 53.085 10.6739 53.5024 13.4622 53.5024C16.3927 53.5024 19.3142 53.4491 22.3423 53.4225C22.3423 53.3159 22.3423 53.4225 22.3423 53.7333L23.621 53.2093C23.6743 53.4313 23.7276 53.68 23.7187 53.6533C24.4835 53.4409 25.2605 53.2748 26.0453 53.1561C27.0931 53.0761 27.5638 52.5256 27.3684 51.4777C27.3595 51.1927 27.3954 50.908 27.475 50.6341C27.3507 50.2345 26.9599 49.6573 27.0931 49.2488C27.6881 47.4728 27.3862 45.6968 27.5105 43.9208C27.6791 42.8812 27.9774 41.8669 28.3985 40.9016C28.4429 40.7595 28.7182 40.6263 28.9047 40.6085C29.8992 40.502 30.8938 40.4309 31.8884 40.3421C32.8829 40.2533 33.7354 40.129 34.6678 40.1024C35.3243 40.1094 35.9797 40.1568 36.6303 40.2444L37.9712 40.6263C38.1725 40.719 38.3894 40.7732 38.6106 40.7861C38.7713 40.7625 38.9352 40.7723 39.0919 40.8148C39.2487 40.8574 39.395 40.9319 39.5217 41.0336C39.6483 41.1352 39.7527 41.2619 39.8282 41.4058C39.9037 41.5496 39.9487 41.7075 39.9604 41.8695C40.0314 43.8586 40.1113 45.8566 40.1735 47.8458C40.22 48.1445 40.1894 48.4502 40.0847 48.7338C39.8272 49.089 39.7384 49.2311 40.0847 49.6218C40.431 50.0125 40.1824 50.5808 40.1824 51.0692C40.1824 52.6144 40.8661 53.4402 42.3313 53.4757C42.7576 53.4757 43.3437 53.8487 43.6634 53.1738C43.6634 53.1028 43.9298 53.085 44.0541 53.1117C44.8444 53.2981 45.6259 53.5024 46.4073 53.6977L46.6293 53.4669L46.0166 53.2715L46.1054 53.1117L47.7837 53.3781V53.6533L48.5119 53.0584V53.4047H51.1759C52.2504 53.4047 53.316 53.4047 54.5059 53.4047L54.6036 53.1827C55.551 53.5876 56.604 53.6749 57.6051 53.4313C58.5255 53.2987 59.458 53.2719 60.3845 53.3514C60.7212 53.282 61.0625 53.2375 61.4057 53.2182C61.7817 53.3347 62.1425 53.4956 62.4802 53.6977Z" fill="#434343"/>
<path d="M116.134 0.523919C117.288 1.05672 118.3 -0.177607 119.286 0.364078C119.744 0.198129 120.229 0.12273 120.716 0.142076C121.197 0.344297 121.713 0.448463 122.234 0.448463C122.756 0.448463 123.272 0.344297 123.753 0.142076C124.201 0.0274297 124.672 0.0274297 125.12 0.142076C125.582 0.142076 126.008 0.284157 126.47 0.364078C126.896 0.692641 127.687 1.01232 127.864 1.53625C128.149 2.4579 128.239 3.42838 128.131 4.38675C128.082 4.94513 128.082 5.50671 128.131 6.06508C128.255 7.92102 128.184 9.79471 128.184 11.6595C128.184 12.9471 128.184 14.2259 128.184 15.5135C128.184 18.1775 128.184 20.8415 128.184 23.5055C128.187 23.7138 128.205 23.9215 128.237 24.1272L129.489 24.9264L129.347 25.0596C129.989 25.0195 130.633 25.0195 131.274 25.0596C132.002 25.1484 132.642 25.5924 133.468 25.3171C133.743 25.2194 134.222 25.7256 134.72 26.0364L134.986 25.6279H135.261C135.315 27.4039 135.386 29.1266 135.421 30.8849C135.421 32.4211 135.421 33.9663 135.421 35.5114C135.421 36.3994 134.684 37.0921 133.397 37.0921H128.157C128.207 37.6415 128.207 38.1943 128.157 38.7438C128.019 40.0158 128.019 41.299 128.157 42.5711C128.157 44.43 128.157 46.2859 128.157 48.1389C128.157 51.9129 128.157 55.6958 128.157 59.4787C128.157 60.9972 127.944 62.5068 127.971 64.0253C127.971 64.8156 127.358 64.8068 127.083 64.8334C124.525 65.011 121.962 65.1353 119.393 65.2064C118.477 65.2272 117.562 65.1408 116.666 64.9488C116.449 64.8865 116.25 64.7735 116.085 64.6191C115.919 64.4648 115.793 64.2734 115.716 64.0608C115.565 62.8176 115.619 61.5478 115.556 60.2868C115.503 59.2834 115.37 58.2888 115.299 57.2853C115.324 57.0195 115.365 56.7556 115.423 56.495C115.423 56.2553 115.423 56.0066 115.423 55.7668C115.449 55.4902 115.55 55.2259 115.716 55.0032C115.796 54.5769 114.713 54.1862 115.716 53.6623C115.715 53.565 115.687 53.4699 115.636 53.387C114.837 52.2681 115.45 51.1315 115.539 49.9859C115.55 48.9278 115.509 47.8697 115.414 46.8157C115.454 46.5445 115.535 46.2809 115.654 46.0343L115.281 45.5992H115.548C115.459 44.2849 115.37 42.9351 115.281 41.7097L116.036 40.2178H115.503C115.423 38.9835 115.361 37.8113 115.29 36.6658C115.29 36.4261 115.121 36.0975 115.228 35.9643C115.466 35.6169 115.606 35.2119 115.634 34.7918C115.662 34.3716 115.577 33.9516 115.388 33.5756C115.243 33.2774 115.185 32.9448 115.219 32.6153C115.254 32.2857 115.38 31.9724 115.583 31.7107C115.725 31.5331 115.583 31.1158 115.388 30.8227C115.468 30.1478 115.929 29.4996 115.308 28.8069C115.672 28.4961 115.308 28.0077 115.672 27.5726C116.036 27.1375 115.485 26.4804 115.37 25.9032C115.37 25.7256 115.29 25.4503 115.37 25.3792C115.841 24.9796 115.734 24.6511 115.37 24.2337C115.257 24.0053 115.228 23.744 115.29 23.4967C115.397 22.6087 115.583 21.7207 115.654 20.8326C115.654 20.5574 115.37 20.2554 115.317 19.9446C115.317 19.8114 115.53 19.6427 115.699 19.4296C115.305 17.9411 115.22 16.3877 115.45 14.8652C115.633 14.054 115.74 13.2276 115.77 12.3966C115.77 12.2545 115.814 12.0858 115.77 11.9792C115.104 10.7804 115.406 9.59047 115.556 8.42718C115.343 7.97258 115.22 7.48113 115.192 6.97973C115.29 6.42029 114.811 5.6122 115.725 5.27476C115.778 5.27476 115.778 4.88404 115.725 4.73307C115.13 3.6497 115.53 2.6729 115.983 1.67833C116.085 1.30213 116.136 0.913781 116.134 0.523919Z" fill="#434343"/>
<path d="M56.6727 1.77604L56.3797 2.53973C57.5963 1.72276 58.6619 2.15789 59.7275 2.37101H61.5745C61.6426 2.37477 61.7108 2.37477 61.7788 2.37101C62.3027 2.25557 63.0398 1.86484 63.315 2.07796C63.7875 2.3855 64.1781 2.80316 64.4535 3.29505C64.7288 3.78693 64.8806 4.33833 64.8957 4.90183C64.8957 6.4736 64.8957 8.04537 64.8957 9.61715C64.9057 10.5114 64.8223 11.4042 64.6471 12.2812C64.5582 12.6541 63.9011 13.2669 63.759 13.1692C62.4626 12.6719 61.1749 13.2491 59.8607 13.0626C58.3526 12.9908 56.8413 13.0383 55.3407 13.2047C53.1829 13.2047 51.0161 13.2047 48.7517 13.2047C48.7517 14.3236 48.805 15.3448 48.7517 16.3571C48.7517 16.8633 49.1424 17.5027 48.3965 17.9289C48.2988 17.9822 48.7251 18.8169 48.7428 19.2609C48.7961 20.6906 48.7428 22.1292 48.7428 23.5677C48.7428 24.2337 48.876 24.6689 49.7196 24.6689C50.4123 24.6689 51.1049 25.3526 51.7798 24.6156C51.7798 24.6156 51.9219 24.6156 51.9397 24.66C52.579 25.6368 53.4226 24.8198 54.1597 24.8731C55.8558 25.0152 57.5696 24.9264 59.2835 24.9619C59.5055 24.9619 59.7097 25.1484 59.9406 25.2017C60.1715 25.255 60.5977 25.4237 60.8286 25.3082C61.983 24.5623 61.9653 24.5446 62.8178 25.6368L62.6668 24.7488C63.4311 24.7967 64.1804 24.9833 64.8779 25.2994C65.1068 25.5253 65.2877 25.7951 65.4098 26.0927C65.5319 26.3902 65.5926 26.7094 65.5883 27.031C65.6594 29.5973 65.6416 32.1637 65.5883 34.73C65.5883 35.0763 65.1976 35.4138 64.9845 35.7512L65.1532 36.0442C64.2652 36.1064 63.3772 36.2041 62.4892 36.2307C58.9372 36.3195 55.3851 36.3935 51.8331 36.4527C49.5361 36.4527 47.2362 36.4527 44.9333 36.4527C42.3669 36.4527 39.8095 36.3284 37.252 36.2485C36.9276 36.2606 36.6114 36.1443 36.372 35.9249C36.1327 35.7055 35.9894 35.4006 35.9733 35.0763C35.8667 34.4636 35.5914 33.8775 35.547 33.3003C35.547 32.9806 35.849 32.6343 36.0443 32.2258C36.3285 31.1957 35.0942 30.2988 35.698 28.9047C36.0355 28.1055 35.325 26.9155 35.3517 25.9121C35.3517 24.7488 35.0586 23.5145 35.7957 22.4222C35.8347 22.3451 35.855 22.26 35.855 22.1736C35.855 22.0872 35.8347 22.002 35.7957 21.9249C35.4011 21.3882 35.1883 20.7395 35.1883 20.0734C35.1883 19.4073 35.4011 18.7586 35.7957 18.2219L35.4849 18.1598C35.5673 17.6897 35.6237 17.2153 35.6536 16.739C35.6536 16.0818 35.6536 15.4247 35.5915 14.7676C35.4428 13.6434 35.3952 12.5081 35.4494 11.3754C35.547 10.665 35.8223 10.1322 35.2629 9.42179C35.0142 9.1021 35.4316 8.28514 35.4938 7.69017C35.627 6.45584 35.7158 5.21263 35.849 3.9783C35.849 3.79182 36.0443 3.6231 36.1598 3.45438L36.959 2.30885C37.847 2.18453 38.735 2.06909 39.623 1.93588C39.6852 1.93588 39.7473 1.82932 39.8006 1.8382C41.4878 1.93588 43.175 2.08685 44.8622 2.14013C45.4839 2.14013 46.2031 1.705 46.7093 1.90036C47.8992 2.37989 48.805 1.483 49.8972 1.45636V2.40653C50.2969 2.05132 50.1992 1.51852 51.0339 1.86484C51.5933 2.14013 52.508 1.77604 53.2806 1.77604C53.5647 1.77604 53.8489 2.00692 54.1686 1.99804C54.9678 1.96252 55.7759 1.85596 56.6727 1.77604Z" fill="#434343"/>
<path d="M169.92 49.2489C170.435 48.7605 171.199 48.2366 170.045 47.7038L170.728 46.2741L169.84 46.1497V45.8833L170.56 45.7235C170.755 44.8355 169.769 44.0718 170.418 43.1572C169.467 42.2692 171.235 41.0171 170.045 40.1379C169.991 40.1379 170.045 39.9337 170.045 39.8271C170.107 38.8148 170.213 37.7936 170.231 36.7813C170.231 35.6002 170.231 34.4192 170.231 33.2292C170.244 32.8183 170.328 32.4126 170.48 32.0304C170.582 31.7115 170.639 31.3796 170.648 31.0447C170.569 30.2455 170.373 29.4641 170.267 28.6649C170.231 28.3107 170.258 27.953 170.347 27.6082C170.416 27.4242 170.445 27.2273 170.431 27.031C170.418 26.8348 170.361 26.6439 170.267 26.4715C170.11 25.7189 170.11 24.9419 170.267 24.1893H170.418C170.478 23.6409 170.505 23.0893 170.497 22.5376C170.444 21.5164 170.311 20.4952 170.24 19.474C170.243 19.1188 170.282 18.7648 170.355 18.4173C170.355 18.2486 170.524 18.0621 170.489 17.9289C170.237 16.6662 170.18 15.3725 170.32 14.0927C170.32 13.4178 170.444 12.7518 170.462 12.0858C170.462 11.9437 170.275 11.7927 170.151 11.624L170.933 11.0468L170.275 10.2743L170.977 9.38624L170.089 9.2264L170.64 8.22296C170.385 7.93305 170.245 7.56065 170.245 7.17511C170.245 6.78957 170.385 6.41717 170.64 6.12726C170.659 6.06459 170.664 5.99814 170.653 5.93333C170.642 5.86852 170.616 5.80718 170.577 5.7543C170.409 5.58572 170.294 5.37061 170.248 5.13648C170.202 4.90236 170.227 4.65987 170.32 4.44004C170.407 3.94775 170.428 3.44602 170.382 2.94819C170.382 2.06018 170.453 1.33202 171.35 0.905775C171.483 0.843615 171.492 0.541692 171.59 0.24865L172.034 0.639373L174.529 0.124329L174.467 0.630493C175.692 0.630493 176.864 0.630493 178.019 0.630493V0.25753C178.69 0.348707 179.367 0.378431 180.044 0.34633C181.216 0.168729 181.82 1.15442 182.708 1.54514C182.805 1.58954 182.779 1.93586 182.779 2.14899C182.779 3.55204 182.681 4.97285 182.708 6.3759C182.779 9.70593 182.921 13.0271 182.983 16.3482C183.036 18.7547 182.983 21.1523 182.983 23.5588C182.938 27.1109 182.983 30.6185 182.983 34.1528C182.983 35.5114 182.983 36.8701 182.983 38.2198C182.983 39.392 182.779 40.5553 182.787 41.7719C182.787 43.3259 182.965 44.8799 182.956 46.425C182.956 47.4906 182.663 48.5563 182.654 49.6219C182.654 50.4299 182.93 51.238 182.965 52.055C183.018 53.3692 183.009 54.719 182.965 56.0155C182.903 58.3687 182.796 60.722 182.752 63.1196C182.752 64.8068 182.423 65.1265 180.736 65.162C179.617 65.162 178.49 65.3041 177.362 65.2952C175.586 65.2952 173.739 65.2952 171.927 65.1265C171.635 65.1225 171.349 65.0365 171.103 64.8781C170.857 64.7198 170.66 64.4955 170.535 64.2309C170.41 63.9662 170.362 63.6718 170.396 63.3811C170.43 63.0904 170.545 62.8152 170.728 62.5868C170.236 61.5061 170.09 60.2993 170.311 59.1324C170.329 58.3032 170.273 57.474 170.142 56.6549C170.054 56.1102 170.084 55.5529 170.231 55.0209C170.648 54.1329 170.08 53.2449 170.329 52.2504C170.577 51.2558 170.098 50.3145 169.92 49.2489Z" fill="#434343"/>
<path d="M2.66401 28.4162L1.88257 27.9012L2.51305 27.1552C1.82041 26.6224 1.92697 23.1859 2.37985 22.653L1.96249 18.3995C2.37985 17.9111 3.62306 17.396 1.96249 16.81C1.96249 16.81 2.02465 16.5258 2.01577 16.3748C2.01577 15.6822 1.90033 14.9807 1.91809 14.288C1.91809 14.0927 2.17561 13.9062 2.45977 13.5066C2.45977 13.1691 1.70497 12.5564 2.53081 11.8815C2.75282 11.695 1.88257 11.0557 2.23777 10.4429C2.35139 10.2019 2.44638 9.95255 2.52193 9.69702L2.02465 9.3507C3.2945 8.62253 2.02465 7.92101 2.10457 7.20172C2.20918 6.82292 2.36135 6.4589 2.55745 6.11835C2.47112 5.31609 2.42666 4.50987 2.42425 3.70297C2.42425 3.07249 4.37787 1.84704 4.97283 2.03352C5.15932 2.09568 5.28364 2.37096 5.479 2.60184L5.89636 1.88256C6.43805 1.60728 6.66893 3.15241 7.20173 1.81152L7.54805 2.83273C7.92102 1.28759 8.95111 1.94472 9.71479 1.94472C10.4785 1.94472 11.553 2.40648 12.0414 2.05128C12.5298 1.69608 12.9827 2.05128 13.4267 1.998C13.8707 1.94472 14.5012 1.998 15.0428 1.998C15.9841 1.92696 16.9343 1.776 17.8845 1.776C18.2833 1.84029 18.6777 1.92926 19.0655 2.0424C19.2786 2.0424 19.5006 1.89144 19.9535 1.70496L21.9427 2.3532C22.2217 2.11221 22.573 1.97093 22.9412 1.95164C23.3094 1.93234 23.6735 2.03613 23.9762 2.24664C24.1859 2.32115 24.4148 2.32115 24.6244 2.24664C25.7252 2.00411 26.8632 1.98298 27.9722 2.18448C28.3805 2.24757 28.7948 2.26247 29.2066 2.22888C30.2544 2.02464 30.5652 2.56632 30.6718 3.46321C30.7339 3.98713 31.0802 4.52882 31.0092 5.01722C30.7162 7.06852 31.2401 9.11094 31.0092 11.1534C31.0047 11.3998 30.9869 11.6459 30.9559 11.8904C30.6274 13.3201 30.583 13.3201 29.0201 13.3201C24.58 13.2757 20.0778 13.3201 15.4336 13.3201C15.4336 13.773 15.4336 14.2081 15.4336 14.5899C15.3803 16.9876 15.3004 19.3941 15.2648 21.8006C15.2704 22.5715 15.3387 23.3407 15.4691 24.1005C15.4691 24.3758 15.4691 24.9885 16.1351 24.58C16.2293 24.5415 16.3319 24.5278 16.433 24.5402C16.534 24.5527 16.6302 24.5908 16.7123 24.6511C17.6003 25.8676 18.5949 25.3259 19.6605 25.0595C20.0778 24.9619 20.5485 25.2638 21.0635 25.1483C21.8645 25.0445 22.6746 25.0296 23.4789 25.1039C24.6511 25.1039 25.8321 25.2105 27.0309 25.175C27.5245 25.2391 28.0251 25.2241 28.5139 25.1306C29.1089 24.802 29.4019 25.1839 29.8015 25.3171C30.2011 25.4503 30.4675 26.134 30.9737 25.5124C31.1069 25.7078 31.3467 25.9032 31.3467 26.0985C31.3467 28.3274 31.3467 30.5386 31.3022 32.7763C31.1775 33.5498 31.1775 34.3383 31.3022 35.1118C31.6486 36.133 30.8938 36.1508 30.4142 36.2307C29.5444 36.3243 28.6692 36.3599 27.7946 36.3372C25.7256 36.4083 23.6565 36.5237 21.5786 36.5326C17.3073 36.5326 13.0271 36.5859 8.74687 36.5326C7.39709 36.5326 6.08284 36.0176 4.72419 36.1152C4.19113 36.2256 3.63604 36.1305 3.17018 35.8488C1.95361 35.1562 2.32657 34.0728 2.28217 33.247C2.39884 32.0583 2.32085 30.8585 2.05129 29.6949C1.98809 29.5729 1.95408 29.4378 1.95196 29.3004C1.94983 29.1629 1.97964 29.0269 2.03904 28.9029C2.09844 28.7789 2.1858 28.6705 2.29425 28.586C2.4027 28.5016 2.52928 28.4434 2.66401 28.4162Z" fill="#434343"/>
<path d="M253.517 14.7231C253.251 14.4478 252.487 14.3235 253.269 13.8351C252.816 13.5243 252.381 12.9471 251.91 12.9471C249.015 12.9471 246.129 13.0714 243.234 13.0892C242.4 13.0198 241.57 12.9071 240.748 12.7517C240.552 12.7517 240.33 13.0981 240.117 13.0981C238.637 13.1735 237.154 13.1497 235.677 13.027C235.366 13.027 235.144 12.0058 234.94 11.4375C234.896 11.3132 235.162 10.9846 235.118 10.9491C233.928 9.95452 234.603 8.55147 234.505 7.39706C234.363 5.71873 234.869 3.98711 235.1 2.27326C235.1 2.27326 235.1 2.2111 235.002 2.10454C235.846 2.2555 236.503 0.861326 237.409 1.94469L237.808 1.39413L238.314 2.04238C239.371 1.26981 239.993 1.32309 240.366 2.20222C240.662 1.9283 241.016 1.72523 241.403 1.60832C241.789 1.49141 242.196 1.46372 242.595 1.52733C243.758 1.66053 245.108 2.23774 246.253 1.23429C246.378 1.11885 246.759 1.34973 247.026 1.34973C248.697 1.24331 250.372 1.24331 252.043 1.34973C252.922 1.5099 253.814 1.5813 254.707 1.56285C254.707 1.56285 254.823 1.90029 254.894 2.11342C256.057 1.22541 257.22 1.76709 258.366 1.86477C258.721 1.86477 259.085 1.86477 259.44 1.86477C261.003 1.86477 262.575 1.86477 264.138 1.80261C265.266 1.74933 265.381 2.49526 265.399 3.28559C265.496 6.9353 265.656 10.585 265.603 14.2347C265.541 18.2396 265.745 22.2268 265.603 26.2495C265.603 27.1996 265.301 28.1409 265.212 29.0911C265.196 29.568 265.238 30.045 265.337 30.5119C265.36 30.6988 265.345 30.8885 265.293 31.0694C265.24 31.2504 265.151 31.4187 265.032 31.5641C264.912 31.7096 264.764 31.8291 264.596 31.9154C264.429 32.0017 264.246 32.0529 264.058 32.0659C262.673 32.0659 261.269 32.1813 259.893 32.0659C258.117 31.9061 256.341 32.1902 254.565 32.0659C253.677 31.9949 253.269 31.2756 253.047 30.4853C252.825 29.6949 253.393 28.7714 252.718 27.8212C252.372 27.3506 252.887 26.285 252.913 25.4858C252.913 24.8464 252.762 24.2159 252.745 23.5766C252.727 22.9372 252.816 22.4843 252.86 21.9426C252.904 21.4009 252.975 20.8326 252.984 20.2732C252.993 19.7137 253.171 18.7547 252.851 18.2663C252.212 17.2717 253.553 16.6235 253.073 15.7177C253.082 15.4513 253.384 15.0339 253.517 14.7231Z" fill="#434343"/>
<path d="M275.797 0.452884C277.245 -0.0710406 278.595 0.506164 280.015 0.612725V0C280.537 0.346035 281.101 0.62359 281.694 0.825847C282.246 0.84453 282.798 0.772536 283.328 0.612725C283.568 0.788319 283.754 1.02815 283.864 1.30463C283.974 1.58111 284.003 1.88301 283.949 2.17562C283.905 3.85395 284.091 5.52341 284.18 7.20174C284.243 7.44336 284.243 7.69717 284.18 7.93878C283.434 9.28856 284.127 10.3364 284.882 11.3487C284.97 11.4731 285.352 11.3487 285.557 11.4198C286.845 11.8217 288.201 11.9606 289.544 11.8283C290.751 11.8283 290.982 12.8583 291.018 13.7641C291.071 15.2471 290.938 16.7389 290.911 18.2041C290.911 19.0922 291.009 20.069 290.911 20.9747C290.698 22.8839 290.325 22.8218 288.318 23.0527C287.665 23.0882 287.009 23.0882 286.356 23.0527H284.269C284.18 24.6156 284.082 26.1252 284.003 27.6259C283.923 29.2865 283.816 30.9471 283.798 32.6076C283.798 33.3003 283.416 33.4956 282.91 33.4956C280.779 33.3358 278.657 33.6288 276.525 33.4956C275.637 33.4956 274.749 33.4956 273.861 33.4956C273.427 33.5571 272.984 33.4866 272.59 33.2935C272.195 33.1004 271.868 32.7934 271.65 32.4123C271.65 31.764 271.57 31.1158 271.544 30.4675C271.544 30.21 271.544 29.9525 271.544 29.7038V28.6116C271.516 28.1977 271.516 27.7823 271.544 27.3684C271.952 26.5781 271.419 25.9298 271.437 25.2283C271.437 23.7897 271.579 22.3511 271.597 20.9215C271.666 19.7968 271.61 18.668 271.428 17.5559C271.251 17.0266 271.207 16.4616 271.302 15.9114C271.396 15.3613 271.626 14.8431 271.97 14.4035H271.482V12.8317C271.402 12.3788 272.316 11.9437 271.331 11.4464C271.331 11.4464 271.268 11.3043 271.286 11.2511C271.837 9.67928 271.189 8.07199 271.455 6.49133C271.595 5.66332 271.678 4.8266 271.704 3.98715C271.704 3.77403 271.446 3.54315 271.464 3.56091C271.544 3.04587 271.464 2.61074 271.659 2.45978C272.068 2.0957 271.757 1.68721 271.872 1.31425C272.112 0.506164 272.814 0.692646 273.346 0.515044C273.847 0.32466 274.369 0.193528 274.9 0.124321C275.167 0.0976808 275.495 0.337443 275.797 0.452884Z" fill="#434343"/>
</g>
<defs>
<clipPath id="clip0_43_2095">
<rect width="291" height="65.9168" fill="white"/>
</clipPath>
</defs>
</svg>
